<?xml version="1.0" encoding="UTF-8"?>
<svg width="25px" height="25px" viewBox="0 0 25 25" version="1.1" xmlns="http://www.w3.org/2000/svg" xmlns:xlink="http://www.w3.org/1999/xlink">
    <!-- Generator: Sketch 46.2 (44496) - http://www.bohemiancoding.com/sketch -->
    <title>Like</title>
    <desc>Created with Sketch.</desc>
    <defs></defs>
    <g id="Symbols" stroke="none" stroke-width="1" fill="none" fill-rule="evenodd">
        <g id="Like" fill-rule="nonzero" fill="#2D2D2D">
            <path d="M15.4186139,18.1369359 C15.2541563,18.2964977 15.0885699,18.4560976 14.9322241,18.6053181 C14.5947305,18.9270333 14.3658595,19.1389977 14.2359575,19.2475787 C13.688855,19.7075357 13.1537838,20 12.5005191,20 C11.847211,20 11.3182153,19.7108566 10.7656928,19.2489207 C10.6342149,19.1391053 10.4053587,18.9271761 10.0955377,18.631823 C9.91138633,18.4560586 9.74582415,18.2964498 9.58139903,18.1368794 C9.48275568,18.0411485 9.40630682,17.9666015 9.37784406,17.9382653 C5.83661372,14.6919142 4.43380126,13.0766428 4.10408927,11.1184761 C3.82499565,9.4482418 4.10600072,8.02897121 4.96098371,6.93557607 C5.82303988,5.83177109 7.12131381,5.20890039 8.87984805,5.02524129 C9.05382779,5.00812946 9.21364761,5 9.37642388,5 C10.4704097,5 11.5777639,5.33943201 12.4996821,5.94160248 C13.4224328,5.33920471 14.5294027,5 15.6246144,5 C15.7846816,5 15.9452215,5.00825203 16.1243036,5.02564894 C17.8779038,5.20880497 19.1753979,5.83154863 20.0388075,6.93524655 C20.8940911,8.028904 21.1750681,9.44815245 20.895825,11.1192777 C20.566512,13.0743421 19.1630683,14.691719 15.6299999,17.931194 C15.5852565,17.9749394 15.5118453,18.04648 15.4186139,18.1369359 Z M14.7110935,17.024268 C18.0028774,14.0060123 19.3446309,12.4608229 19.6052484,10.9135932 C19.8301439,9.56770785 19.6189469,8.50092688 18.9988274,7.70797535 C18.3710108,6.90543642 17.403655,6.44114555 15.9898516,6.29346174 C15.8574666,6.28061461 15.7399958,6.27457639 15.6246144,6.27457639 C14.6640714,6.27457639 13.6748929,6.62377004 12.9116541,7.22771455 L12.4992951,7.55401082 L12.0871225,7.22749077 C11.3254473,6.62409722 10.3355912,6.27457639 9.37642388,6.27457639 C9.25833548,6.27457639 9.14227334,6.28048005 9.01516662,6.29296941 C7.59573805,6.44122266 6.62789399,6.90556358 6.00130339,7.7078705 C5.38114114,8.5009652 5.16991824,9.56778755 5.39467217,10.9128292 C5.65546373,12.4616737 6.99490742,14.003979 10.2891101,17.0243389 C10.331672,17.0659916 10.4068563,17.1393055 10.5041037,17.2336816 C10.6661629,17.390956 10.8292639,17.5481921 10.9827302,17.6946833 C11.2977081,17.9949696 11.5152221,18.1963954 11.6168744,18.2812996 C11.9471496,18.5574257 12.2545064,18.7254236 12.5005191,18.7254236 C12.7462456,18.7254236 13.0568207,18.5556666 13.3832195,18.2812617 C13.4846754,18.1964553 13.7022932,17.9949129 13.9902761,17.7204082 C14.1707737,17.548153 14.3339169,17.3909081 14.4960259,17.233625 C14.593303,17.1392439 14.6685137,17.0659252 14.7110935,17.024268 Z" id="Shape"></path>
        </g>
    </g>
</svg>