<?xml version="1.0" encoding="UTF-8"?>
<svg width="521px" height="143px" viewBox="0 0 521 143" version="1.1" xmlns="http://www.w3.org/2000/svg" xmlns:xlink="http://www.w3.org/1999/xlink">
    <!-- Generator: Sketch 43.1 (39012) - http://www.bohemiancoding.com/sketch -->
    <title>Group 15</title>
    <desc>Created with Sketch.</desc>
    <defs></defs>
    <g id="Page-1" stroke="none" stroke-width="1" fill="none" fill-rule="evenodd">
        <g id="Artboard" transform="translate(-2400.000000, -929.000000)">
            <g id="Group-15" transform="translate(2399.000000, 928.000000)">
                <g id="Group-14" transform="translate(1.104762, 0.000000)">
                    <path d="M260.352827,35.7518695 C268.022111,35.7518695 274.243695,41.9631326 274.243695,49.6324162 C274.243695,57.3016999 268.022111,63.5142754 260.352827,63.5142754 C252.683544,63.5142754 246.472251,57.3016999 246.472251,49.6324162 C246.472251,41.9631326 252.683544,35.7518695 260.352827,35.7518695 Z" id="Clip-2" fill="#FF7578"></path>
                    <path d="M182.862822,35.7518695 C190.532106,35.7518695 196.753689,41.9631326 196.753689,49.6324162 C196.753689,57.3016999 190.532106,63.5142754 182.862822,63.5142754 C175.193538,63.5142754 168.982275,57.3016999 168.982275,49.6324162 C168.982275,41.9631326 175.193538,35.7518695 182.862822,35.7518695 Z" id="Clip-5" fill="#FFAC87"></path>
                    <path d="M518.376801,14.6743745 C525.602474,5.36580206 510.456718,-4.77847749 503.089658,5.36580206 L477.118219,43.4229429 L451.558116,5.36580206 C444.191056,-4.77847749 428.492278,5.9186448 436.001025,15.2272173 L467.526544,60.9343725 L467.526544,89.5543797 C467.526544,101.640082 487.120932,101.640082 485.8738,89.5543797 L485.8738,60.9343725 L518.376801,14.6743745 Z" id="Clip-8" fill="#647784"></path>
                    <path d="M374.158044,6.75438171 L361.802453,34.6800991 L346.103676,71.3486602 L330.122422,34.6800991 L317.766533,6.75438171 C311.646605,-4.77847749 295.253807,4.24723063 300.666708,15.2272173 L315.388003,46.0715112 C315.657952,46.5086489 315.876595,46.9715287 316.05676,47.4472347 L337.348096,92.0486448 C342.632227,102.887214 352.493851,100.804375 355.682227,92.0486448 L391.103656,14.3915102 C395.835362,2.85865097 379.712422,-3.80135314 374.158044,6.75438171 Z" id="Clip-11" fill="#647784"></path>
                    <path d="M452.663861,80.1043601 L414.876729,80.1043601 L414.876729,10.5086654 C414.876729,5.9186448 411.122505,2.0358 406.673872,2.0358 C401.813902,2.0358 397.930819,5.9186448 397.930819,10.5086654 L397.930819,89.8243581 C397.930819,94.8258041 401.813902,98.2972234 406.673872,98.2972234 L452.663861,98.2972234 C466.549658,98.2972234 466.279411,80.1043601 452.663861,80.1043601 Z" id="Clip-14" fill="#647784"></path>
                    <path d="M128.856768,46.0921922 L140.659606,14.0650462 C144.825315,1.97934427 128.021031,-3.30496613 123.855322,7.94505856 L103.155338,65.1850431 L78.5596223,7.53363307 C74.9467559,-0.9392323 66.2039121,-0.527806814 62.8610539,7.94505856 L38.2781947,65.1850431 L17.7196155,7.94505856 C14.106758,-3.02210179 -3.53324315,1.55503284 0.632471066,14.0650462 L27.5810426,89.7679023 C29.8053294,95.88789 32.2996243,99.217892 37.1596233,99.217892 C42.1610395,99.217892 44.5267435,95.88789 47.0338946,90.0507667 L70.0867569,36.0121932 L94.2581906,90.8864738 C97.0353201,95.88789 98.565317,98.9479136 103.566763,98.9479136 C108.285315,98.9479136 110.651049,96.5821798 113.1582,88.662187 L127.635318,49.3836259 C127.637913,49.3707698 127.641761,49.3591963 127.643044,49.3476228 L128.838752,46.1243474 C128.845195,46.1140565 128.850325,46.102483 128.856768,46.0921922 Z" id="Clip-17" fill="#647784"></path>
                    <path d="M260.029605,78.471395 C275.959613,78.471395 288.868166,65.5628122 288.868166,49.632804 C288.868166,33.7028256 275.959613,20.7942429 260.029605,20.7942429 C244.112453,20.7942429 231.191044,33.7028256 231.191044,49.632804 C231.191044,65.5628122 244.112453,78.471395 260.029605,78.471395 Z M182.5396,78.471395 C198.469608,78.471395 211.378191,65.5628122 211.378191,49.632804 C211.378191,33.7028256 198.469608,20.7942429 182.5396,20.7942429 C166.622448,20.7942429 153.701038,33.7028256 153.701038,49.632804 C153.701038,65.5628122 166.622448,78.471395 182.5396,78.471395 Z M260.029605,1.57280091 C286.579599,1.57280091 308.102374,23.0828102 308.102374,49.632804 C308.102374,76.1828277 286.579599,97.6928071 260.029605,97.6928071 C244.131752,97.6928071 230.040317,89.9682511 221.29103,78.0702305 C212.540461,89.9682511 198.445178,97.6928071 182.5396,97.6928071 C156.799601,97.6928071 135.778183,77.4556725 134.543877,52.0113939 C134.582475,51.6513929 134.608188,51.2913919 134.608188,50.9185347 C134.608188,50.4170866 134.569619,49.9156683 134.479597,49.4271062 C134.595331,22.9671051 156.066742,1.57280091 182.5396,1.57280091 C198.445178,1.57280091 212.540461,9.29738674 221.29103,21.1953775 C230.040317,9.29738674 244.131752,1.57280091 260.029605,1.57280091 Z" id="Clip-20" fill="#647784"></path>
                </g>
                <path d="M35.8973447,143.619048 L30.453776,143.619048 L40.9039714,117.147647 L45.0731259,117.147647 L55.4687035,143.619048 L50.0251349,143.619048 L47.6037481,137.028506 L38.3187314,137.028506 L35.8973447,143.619048 Z M46.6752465,133.405529 L42.9794457,122.700451 L39.1744094,133.405529 L46.6752465,133.405529 Z M72.6996448,143.619048 L63.0869216,143.619048 L63.0869216,117.147647 L72.6996448,117.147647 C74.7994042,117.147647 76.6897661,117.490522 78.3707873,118.176281 C80.0518086,118.862041 81.4233071,119.808739 82.4853242,121.016404 C83.5473412,122.224069 84.3574963,123.619842 84.9158139,125.203764 C85.4741314,126.787687 85.753286,128.50206 85.753286,130.346935 C85.753286,134.364394 84.566879,137.58074 82.1940295,139.99607 C79.8211801,142.411401 76.6564168,143.619048 72.6996448,143.619048 Z M80.5646001,130.346935 C80.5646001,127.737408 79.8667137,125.63768 78.4709199,124.047689 C77.0751261,122.457698 75.1513869,121.662714 72.6996448,121.662714 L68.2209896,121.662714 L68.2209896,139.103981 L72.6996448,139.103981 C75.1635243,139.103981 77.0902977,138.287757 78.4800228,136.655285 C79.869748,135.022813 80.5646001,132.920051 80.5646001,130.346935 Z M104.240435,143.619048 L94.6277122,143.619048 L94.6277122,117.147647 L104.240435,117.147647 C106.340195,117.147647 108.230557,117.490522 109.911578,118.176281 C111.592599,118.862041 112.964098,119.808739 114.026115,121.016404 C115.088132,122.224069 115.898287,123.619842 116.456604,125.203764 C117.014922,126.787687 117.294077,128.50206 117.294077,130.346935 C117.294077,134.364394 116.10767,137.58074 113.73482,139.99607 C111.361971,142.411401 108.197207,143.619048 104.240435,143.619048 Z M112.105391,130.346935 C112.105391,127.737408 111.407504,125.63768 110.01171,124.047689 C108.615917,122.457698 106.692178,121.662714 104.240435,121.662714 L99.7617802,121.662714 L99.7617802,139.103981 L104.240435,139.103981 C106.704315,139.103981 108.631088,138.287757 110.020813,136.655285 C111.410539,135.022813 112.105391,132.920051 112.105391,130.346935 Z M131.302571,143.619048 L126.168503,143.619048 L126.168503,117.184059 L131.302571,117.184059 L131.302571,143.619048 Z M160.349151,143.619048 L146.731127,126.651135 L146.731127,143.619048 L141.597058,143.619048 L141.597058,117.147647 L145.584154,117.147647 L159.366032,134.51609 L159.366032,117.184059 L164.518306,117.184059 L164.518306,143.619048 L160.349151,143.619048 Z M192.545355,143.619048 L192.545355,140.633278 C190.506282,142.745174 188.157742,143.801107 185.499665,143.801107 C183.848988,143.801107 182.262054,143.424855 180.738819,142.67234 C179.215583,141.919825 177.913873,140.924578 176.83365,139.68657 C175.753427,138.448562 174.891689,137.001206 174.24841,135.344459 C173.605131,133.687713 173.283496,131.985477 173.283496,130.2377 C173.283496,128.453511 173.605131,126.748241 174.24841,125.121838 C174.891689,123.495435 175.765564,122.08449 176.870062,120.888963 C177.974559,119.693435 179.309646,118.740668 180.875363,118.030634 C182.44108,117.3206 184.097801,116.965588 185.845578,116.965588 C188.200221,116.965588 190.248366,117.478383 191.990074,118.503988 C193.731782,119.529593 195.039561,120.940537 195.913449,122.736863 L192.072001,125.576986 C191.440859,124.290428 190.560916,123.292147 189.432143,122.582113 C188.303371,121.872078 187.047175,121.517067 185.663519,121.517067 C184.255588,121.517067 182.996358,121.923661 181.885791,122.736863 C180.775225,123.550065 179.925624,124.630271 179.336963,125.977516 C178.748302,127.32476 178.453976,128.793356 178.453976,130.383347 C178.453976,132.895776 179.167034,135.001573 180.593171,136.7008 C182.019308,138.400027 183.806505,139.249628 185.954813,139.249628 C188.382281,139.249628 190.579106,138.04805 192.545355,135.644857 L192.545355,133.769648 L187.229227,133.769648 L187.229227,130.001023 L196.805539,130.001023 L196.805539,143.619048 L192.545355,143.619048 Z M238.349522,143.619048 L219.706665,143.619048 L219.706665,117.147647 L224.840733,117.147647 L224.840733,139.103981 L238.349522,139.103981 L238.349522,143.619048 Z M251.575162,143.619048 L246.441094,143.619048 L246.441094,117.184059 L251.575162,117.184059 L251.575162,143.619048 Z M267.003718,143.619048 L261.86965,143.619048 L261.86965,117.147647 L279.638623,117.147647 L279.638623,121.662714 L267.003718,121.662714 L267.003718,128.489932 L277.526737,128.489932 L277.526737,132.659087 L267.003718,132.659087 L267.003718,143.619048 Z M293.064528,139.103981 L306.300228,139.103981 L306.300228,143.619048 L287.93046,143.619048 L287.93046,117.147647 L305.972522,117.147647 L305.972522,121.662714 L293.064528,121.662714 L293.064528,128.034784 L304.224754,128.034784 L304.224754,132.203939 L293.064528,132.203939 L293.064528,139.103981 Z M347.643947,117.147647 L347.643947,121.662714 L339.214608,121.662714 L339.214608,143.619048 L334.08054,143.619048 L334.08054,121.662714 L325.61479,121.662714 L325.61479,117.147647 L347.643947,117.147647 Z M365.876213,143.801107 C364.055613,143.801107 362.353377,143.421821 360.769454,142.663237 C359.185532,141.904653 357.859548,140.89727 356.791462,139.641055 C355.723376,138.384841 354.882878,136.952656 354.269943,135.344459 C353.657007,133.736262 353.350544,132.082575 353.350544,130.383347 C353.350544,128.635571 353.672178,126.945472 354.315457,125.313 C354.958736,123.680528 355.832611,122.251378 356.937109,121.025507 C358.041607,119.799636 359.382763,118.816526 360.960616,118.076149 C362.53847,117.335771 364.213398,116.965588 365.985449,116.965588 C367.441929,116.965588 368.831634,117.217434 370.154604,117.721133 C371.477573,118.224833 372.636672,118.916651 373.631933,119.796608 C374.627195,120.676565 375.491967,121.683948 376.226276,122.81879 C376.960585,123.953631 377.518894,125.176449 377.90122,126.487281 C378.283547,127.798114 378.474707,129.121064 378.474707,130.456171 C378.474707,132.19181 378.156106,133.869772 377.518896,135.490106 C376.881686,137.110441 376.016914,138.533523 374.924553,139.759394 C373.832193,140.985265 372.497106,141.96534 370.919252,142.699649 C369.341398,143.433958 367.660402,143.801107 365.876213,143.801107 Z M358.521024,130.383347 C358.521024,131.936926 358.809281,133.378214 359.385805,134.707252 C359.962328,136.036291 360.827101,137.1256 361.980148,137.975214 C363.133195,138.824828 364.456145,139.249628 365.949037,139.249628 C367.089947,139.249628 368.133742,138.994748 369.080455,138.48498 C370.027167,137.975211 370.800911,137.298565 371.401709,136.45502 C372.002507,135.611475 372.466753,134.664777 372.794461,133.614897 C373.122169,132.565018 373.286021,131.487845 373.286021,130.383347 C373.286021,128.841905 372.994729,127.403653 372.412137,126.068545 C371.829545,124.733438 370.967807,123.647163 369.826897,122.809687 C368.685987,121.97221 367.381243,121.553478 365.912625,121.553478 C364.771716,121.553478 363.724886,121.808359 362.772105,122.318127 C361.819324,122.827895 361.039512,123.501507 360.432645,124.338983 C359.825778,125.17646 359.355463,126.117089 359.021686,127.1609 C358.68791,128.204711 358.521024,129.27885 358.521024,130.383347 Z M419.563542,143.619048 L400.920685,143.619048 L400.920685,117.147647 L406.054753,117.147647 L406.054753,139.103981 L419.563542,139.103981 L419.563542,143.619048 Z M432.789182,143.619048 L427.655114,143.619048 L427.655114,117.184059 L432.789182,117.184059 L432.789182,143.619048 Z M448.217738,143.619048 L443.08367,143.619048 L443.08367,117.147647 L460.852643,117.147647 L460.852643,121.662714 L448.217738,121.662714 L448.217738,128.489932 L458.740757,128.489932 L458.740757,132.659087 L448.217738,132.659087 L448.217738,143.619048 Z M474.278548,139.103981 L487.514249,139.103981 L487.514249,143.619048 L469.14448,143.619048 L469.14448,117.147647 L487.186542,117.147647 L487.186542,121.662714 L474.278548,121.662714 L474.278548,128.034784 L485.438774,128.034784 L485.438774,132.203939 L474.278548,132.203939 L474.278548,139.103981 Z" id="ADDING-LIFE-TO-LIFE" fill="#556570"></path>
            </g>
        </g>
    </g>
</svg>